HIERARCHY
ROOT Hips
{
	OFFSET 0.000000 8.830580 0.000000
	CHANNELS 6 Xposition Yposition Zposition Zrotation Yrotation Xrotation 
	JOINT Spine
	{
		OFFSET 0.000000 0.010000 0.000000
		CHANNELS 3 Zrotation Yrotation Xrotation
		JOINT Spine1
		{
			OFFSET 0.000000 2.459130 0.000000
			CHANNELS 3 Zrotation Yrotation Xrotation
			JOINT Neck
			{
				OFFSET 0.000000 2.484630 0.000000
				CHANNELS 3 Zrotation Yrotation Xrotation
				JOINT Head_virtual
				{
					OFFSET 0.000000 0.000000 0.000000
					CHANNELS 3 Zrotation Yrotation Xrotation
					JOINT Head
					{
						OFFSET 0.000000 0.927525 0.000000
						CHANNELS 3 Zrotation Yrotation Xrotation
						End Site
						{
							OFFSET 0.000000 0.000000 0.000000
						}
					}
				}
				JOINT LeftUpArm_virtual
				{
					OFFSET 0.000000 0.000000 0.000000
					CHANNELS 3 Zrotation Yrotation Xrotation
					JOINT LeftUpArm
					{
						OFFSET 1.248820 0.000000 0.000000
						CHANNELS 3 Zrotation Yrotation Xrotation
						JOINT LeftForeArm
						{
							OFFSET 2.597580 0.000000 0.000000
							CHANNELS 3 Zrotation Yrotation Xrotation
							JOINT LeftHand
							{
								OFFSET 2.455420 0.000000 0.000000
								CHANNELS 3 Zrotation Yrotation Xrotation
								End Site
								{
									OFFSET 0.000000 0.000000 0.000000
								}
							}
						}
					}
				}
				JOINT RightUpArm_virtual
				{
					OFFSET -0.000000 -0.000000 -0.000000
					CHANNELS 3 Zrotation Yrotation Xrotation
					JOINT RightUpArm
					{
						OFFSET -1.248820 -0.000000 -0.000000
						CHANNELS 3 Zrotation Yrotation Xrotation
						JOINT RightForeArm
						{
							OFFSET -2.597580 -0.000000 -0.000000
							CHANNELS 3 Zrotation Yrotation Xrotation
							JOINT RightHand
							{
								OFFSET -2.455420 -0.000000 -0.000000
								CHANNELS 3 Zrotation Yrotation Xrotation
								End Site
								{
									OFFSET 0.000000 0.000000 0.000000
								}
							}
						}
					}
				}
			}
		}
	}
	JOINT LeftUpLeg
	{
		OFFSET 1.271939 0.000000 0.000000
		CHANNELS 3 Zrotation Yrotation Xrotation
		JOINT LeftLowLeg
		{
			OFFSET 0.000000 -4.342910 0.000000
			CHANNELS 3 Zrotation Yrotation Xrotation
			JOINT LeftFoot
			{
				OFFSET 0.000000 -4.487670 0.000000
				CHANNELS 3 Zrotation Yrotation Xrotation
				JOINT LeftToeBase
				{
					OFFSET 0.000000 0.000000 1.515070
					CHANNELS 3 Zrotation Yrotation Xrotation
					End Site
					{
						OFFSET 0.000000 0.000000 0.000000
					}
				}
			}
		}
	}
	JOINT RightUpLeg
	{
		OFFSET -1.271939 0.000000 0.000000
		CHANNELS 3 Zrotation Yrotation Xrotation
		JOINT RightLowLeg
		{
			OFFSET 0.000000 -4.342910 0.000000
			CHANNELS 3 Zrotation Yrotation Xrotation
			JOINT RightFoot
			{
				OFFSET 0.000000 -4.487670 0.000000
				CHANNELS 3 Zrotation Yrotation Xrotation
				JOINT RightToeBase
				{
					OFFSET 0.000000 0.000000 1.515070
					CHANNELS 3 Zrotation Yrotation Xrotation
					End Site
					{
						OFFSET 0.000000 0.000000 0.000000
					}
				}
			}
		}
	}
}
MOTION
Frames: 16
Frame Time: 0.041667
-18.784918 9.249671 50.737402 -175.653108 28.135802 178.113054 3.404443 1.299643 -20.576334 -0.367637 -4.400234 39.436666 0.000000 0.000000 0.000000 -10.286609 4.185152 -13.154283 1.365206 10.660704 -70.386342 -28.065399 -1.255270 -13.171100 -35.023998 7.676900 41.779598 0.000000 -23.119200 0.000000 0.378347 9.153920 9.093080 29.064301 1.463200 -3.240430 38.242298 5.478650 25.177999 0.000000 23.673201 0.000000 -6.216310 -0.308480 -8.386680 9.395051 19.221017 6.007103 0.000000 0.000000 6.355690 -7.366740 8.840649 8.554843 0.000000 0.000000 -12.127330 11.368788 9.640274 7.163285 0.000000 0.000000 7.346220 12.671348 -22.129426 7.783603 0.000000 0.000000 -14.538945 
-18.791595 9.249646 50.725096 -175.627729 28.277375 178.136205 3.530269 1.598480 -20.682318 -0.577426 -4.318567 39.429135 0.000000 0.000000 0.000000 -10.015384 4.150918 -13.113427 1.321847 10.720391 -70.315600 -28.031200 -1.041570 -13.126400 -34.740398 7.744770 41.869202 0.000000 -23.799500 0.000000 1.152460 8.874170 7.746250 29.107201 1.410790 -3.189010 38.547401 5.103940 24.932600 0.000000 23.532499 0.000000 -5.995280 -0.624330 -8.461480 9.401388 19.553451 6.127025 0.000000 0.000000 6.289370 -7.293922 8.731738 8.527518 0.000000 0.000000 -12.008910 11.295471 9.510601 7.181438 0.000000 0.000000 7.374510 12.635077 -21.923299 7.810811 0.000000 0.000000 -14.589655 
-18.800983 9.249199 50.715643 -175.615670 28.358248 178.130793 3.735996 2.010898 -20.721447 -1.039237 -4.295691 39.431835 0.000000 0.000000 0.000000 -9.756764 4.196065 -13.059629 1.317452 10.857336 -70.341721 -27.867901 -0.883442 -13.266800 -34.503601 7.831850 41.771099 0.000000 -24.469000 0.000000 2.329870 8.431660 6.557330 29.315500 1.344900 -3.255100 38.782501 4.802040 24.908701 0.000000 23.335100 0.000000 -5.697880 -0.855803 -8.484260 9.352365 19.742455 6.204101 0.000000 0.000000 6.253920 -7.147344 8.766245 8.477670 0.000000 0.000000 -11.864430 11.251855 9.568733 7.134417 0.000000 0.000000 7.551250 12.671707 -21.933272 7.689862 0.000000 0.000000 -14.599317 
-18.808549 9.248407 50.706113 -175.581774 28.498979 178.154655 3.933589 2.397205 -20.805451 -1.427297 -4.258440 39.444916 0.000000 0.000000 0.000000 -9.381446 4.151852 -12.960304 1.148530 10.980474 -70.395746 -27.713900 -0.764537 -13.299200 -34.374100 7.810780 41.405102 0.000000 -25.070499 0.000000 3.749040 7.952730 5.029860 29.449400 1.309040 -3.240410 39.020000 4.594730 24.839500 0.000000 23.153400 0.000000 -5.357540 -0.925687 -8.301150 9.340859 19.989128 6.278061 0.000000 0.000000 6.245250 -7.007996 8.766897 8.394441 0.000000 0.000000 -11.742150 11.236552 9.681187 7.057823 0.000000 0.000000 7.767220 12.693967 -21.939507 7.572727 0.000000 0.000000 -14.690576 
-18.816476 9.247709 50.696379 -175.555807 28.576601 178.138887 4.151230 2.784666 -20.873398 -1.883118 -4.258864 39.493364 0.000000 0.000000 0.000000 -9.169709 4.196366 -12.928545 1.108680 11.102547 -70.341095 -27.546801 -0.657984 -13.359300 -34.293900 7.648490 40.901798 0.000000 -25.604401 0.000000 5.240980 7.550350 3.460280 29.692301 1.285070 -3.176380 39.110001 4.507390 24.956400 0.000000 22.966200 0.000000 -5.133620 -0.922726 -8.191360 9.307700 19.991262 6.341294 0.000000 0.000000 6.278290 -6.969677 8.876695 8.291273 0.000000 0.000000 -11.467550 11.182261 9.583818 6.989103 0.000000 0.000000 8.023330 12.708951 -21.782047 7.471297 0.000000 0.000000 -14.895635 
-18.822241 9.246030 50.689664 -175.565484 28.738576 178.093380 4.212907 2.998763 -20.859795 -1.942512 -4.153566 39.460468 0.000000 0.000000 0.000000 -9.028588 4.136629 -12.913487 1.149618 11.077268 -70.287445 -27.582300 -0.654822 -13.332100 -34.242699 7.354420 40.167198 0.000000 -26.102900 0.000000 6.552630 7.207490 2.121550 29.781900 1.242430 -3.135050 39.144100 4.423020 24.892401 0.000000 22.978701 0.000000 -5.174680 -0.830357 -7.796780 9.307023 20.094542 6.487657 0.000000 0.000000 6.226770 -7.026755 8.866697 8.240165 0.000000 0.000000 -11.366020 11.145443 9.666183 6.828802 0.000000 0.000000 8.489970 12.741296 -21.737251 7.267396 0.000000 0.000000 -15.509461 
-18.826209 9.244084 50.684574 -175.612884 28.899740 178.029677 4.178711 3.042652 -20.906550 -1.846509 -4.055508 39.524772 0.000000 0.000000 0.000000 -9.146624 4.169486 -13.025410 1.472275 10.975756 -69.933372 -27.718500 -0.669722 -13.289400 -34.169601 6.929300 39.407700 0.000000 -26.671000 0.000000 8.196370 6.158050 1.761010 29.802601 1.361190 -3.010080 39.036999 4.290310 24.812799 0.000000 23.509300 0.000000 -6.019960 -0.630184 -7.971140 9.289058 20.114760 6.653068 0.000000 0.000000 6.140090 -7.178345 8.858331 8.209090 0.000000 0.000000 -11.537070 11.088979 9.715183 6.612373 0.000000 0.000000 9.074580 12.749121 -21.692149 6.993524 0.000000 0.000000 -16.161760 
-18.829446 9.241943 50.680492 -175.708828 29.029950 177.932174 4.113193 3.057985 -20.986391 -1.871276 -4.000587 39.658739 0.000000 0.000000 0.000000 -9.139822 4.283448 -13.193816 1.992056 10.938207 -69.423380 -27.808201 -0.670056 -13.293900 -34.069099 6.467660 38.433701 0.000000 -27.677299 0.000000 10.369300 4.606820 2.226950 29.829700 1.550360 -2.860230 38.848999 4.181000 24.951700 0.000000 24.580999 0.000000 -7.572110 -0.060612 -8.506960 9.198347 19.913218 6.841732 0.000000 0.000000 5.977420 -7.351071 9.001245 8.197920 0.000000 0.000000 -11.482860 10.977660 9.648241 6.337512 0.000000 0.000000 9.772570 12.762518 -21.530700 6.693115 0.000000 0.000000 -16.621060 
-18.829964 9.239298 50.675445 -175.812839 29.114144 177.793551 4.035853 3.124924 -21.073225 -1.965962 -3.925078 39.746269 0.000000 0.000000 0.000000 -8.550534 4.329570 -13.131208 2.498783 11.027547 -68.778336 -27.912201 -0.644101 -13.005400 -33.810799 5.694580 37.644901 0.000000 -29.269501 0.000000 13.975600 2.453300 3.266560 29.886200 1.549640 -2.763650 38.584900 4.200830 25.011600 0.000000 26.385200 0.000000 -9.226430 -0.041801 -10.038900 9.157856 19.914681 7.043873 0.000000 0.000000 5.888580 -7.454417 8.961564 8.187649 0.000000 0.000000 -11.485940 10.876013 9.516865 6.109265 0.000000 0.000000 10.462100 12.777536 -21.360092 6.400708 0.000000 0.000000 -17.045540 
-18.827907 9.236752 50.668837 -175.894655 29.078609 177.641026 3.924564 3.061939 -21.157054 -1.988352 -3.910602 39.659203 0.000000 0.000000 0.000000 -7.924504 4.460660 -12.751505 3.243433 11.189479 -68.061587 -28.037201 -0.668130 -12.711600 -33.416801 4.989980 37.370098 0.000000 -31.655600 0.000000 18.004400 0.558536 1.853560 29.842899 1.351130 -2.826740 38.287300 4.319200 25.352900 0.000000 28.702000 0.000000 -10.965900 0.793266 -12.146300 9.132545 19.813122 7.224466 0.000000 0.000000 5.843950 -7.554278 8.951113 8.141988 0.000000 0.000000 -11.433310 10.823452 9.362976 5.994732 0.000000 0.000000 10.999700 12.763514 -21.310771 6.145196 0.000000 0.000000 -17.379400 
-18.823567 9.234393 50.660967 -175.950459 28.938701 177.496371 3.789840 2.895969 -21.233027 -1.983805 -3.963274 39.329274 0.000000 0.000000 0.000000 -6.811224 4.465463 -11.716073 3.706180 11.517402 -67.508687 -28.164400 -0.609567 -12.473000 -33.027100 4.182620 37.193600 0.000000 -34.534100 0.000000 21.624800 -0.530753 0.526545 29.756500 1.113650 -2.910150 37.904099 4.469420 25.570900 0.000000 31.591999 0.000000 -12.749300 1.342800 -13.042100 9.120516 19.593653 7.377234 0.000000 0.000000 5.819230 -7.606196 8.964417 8.084994 0.000000 0.000000 -11.382500 10.816286 9.226118 5.945497 0.000000 0.000000 11.445100 12.792682 -21.332433 5.884257 0.000000 0.000000 -17.630260 
-18.818120 9.232027 50.655815 -176.019658 28.622971 177.283003 3.580250 2.528120 -21.242576 -1.857587 -4.090085 38.838690 0.000000 0.000000 0.000000 -5.657924 4.439713 -10.300615 4.216666 11.858803 -66.892950 -28.292601 -0.620139 -12.443500 -32.749001 3.399720 36.760300 0.000000 -37.712002 0.000000 24.590000 -1.462190 -0.170320 29.616699 0.849496 -3.060600 37.377499 4.764650 25.777901 0.000000 34.929199 0.000000 -14.901100 1.868940 -14.646200 9.076296 19.120954 7.470057 0.000000 0.000000 5.889540 -7.654455 9.084928 8.007234 0.000000 0.000000 -11.329220 10.834073 9.059362 5.986019 0.000000 0.000000 11.805300 12.880662 -21.472913 5.616320 0.000000 0.000000 -17.867170 
-18.806668 9.230672 50.641468 -176.066168 28.630535 177.128034 3.404315 2.245836 -21.445486 -1.550915 -4.098415 38.275520 0.000000 0.000000 0.000000 -4.291772 4.170782 -8.436965 4.487748 12.142062 -66.325008 -28.535700 -0.671211 -12.405800 -32.525600 2.558190 35.912399 0.000000 -41.264301 0.000000 26.659201 -2.606150 -0.003479 29.428499 0.541054 -3.057300 36.612099 5.374980 26.113400 0.000000 38.563000 0.000000 -16.788700 3.853930 -12.592300 9.174959 19.279095 7.826033 0.000000 0.000000 5.701720 -7.694463 8.903805 8.055303 0.000000 0.000000 -11.317390 10.868476 9.099071 6.101191 0.000000 0.000000 12.060200 12.879994 -21.527835 5.453181 0.000000 0.000000 -17.944450 
-18.793125 9.229735 50.630359 -176.103821 28.660661 176.858510 3.256995 1.971694 -21.629350 -1.378497 -4.158887 37.915021 0.000000 0.000000 0.000000 -2.899209 3.864675 -6.693915 4.486772 12.477484 -65.667900 -28.701900 -0.602520 -12.572900 -32.345200 1.450270 35.186001 0.000000 -45.066502 0.000000 28.780100 -4.671080 0.231227 29.234301 0.353281 -3.236810 35.853001 6.275400 26.675501 0.000000 42.452999 0.000000 -19.304800 5.507340 -11.880000 9.334199 19.386005 8.265653 0.000000 0.000000 5.583640 -7.775387 8.756767 8.100456 0.000000 0.000000 -11.351970 10.976777 9.278521 6.346501 0.000000 0.000000 12.280300 12.964186 -21.705072 5.288944 0.000000 0.000000 -17.978370 
-18.778317 9.227318 50.620348 -176.146284 28.692855 176.605050 3.137954 1.721893 -21.827963 -1.222564 -4.222841 37.577997 0.000000 0.000000 0.000000 -1.994476 3.720512 -5.275320 4.465549 12.736197 -64.890667 -28.906099 -0.653664 -12.715200 -32.016701 0.232297 34.445801 0.000000 -49.564098 0.000000 30.563700 -6.666270 -0.481197 29.075199 0.223458 -3.494590 35.032700 7.418700 27.188700 0.000000 46.626301 0.000000 -22.100201 7.275160 -11.824100 9.470078 19.377969 8.601112 0.000000 0.000000 5.631460 -7.867880 8.707332 8.020043 0.000000 0.000000 -11.384540 11.047459 9.282611 6.575095 0.000000 0.000000 12.486600 13.033140 -21.680058 5.109931 0.000000 0.000000 -17.924470 
-18.760827 9.224571 50.611076 -176.182365 28.660420 176.233860 3.005551 1.333274 -21.992064 -1.031983 -4.367838 37.467330 0.000000 0.000000 0.000000 -1.300006 3.559765 -4.460740 4.341656 12.880832 -63.957333 -29.132601 -0.669654 -12.782600 -31.667101 -1.330090 33.624199 0.000000 -54.514702 0.000000 33.716999 -8.250300 1.872300 28.784700 0.266976 -3.725840 34.278599 8.778720 27.157801 0.000000 50.938400 0.000000 -23.989000 10.099500 -12.253500 9.606111 19.048860 8.908351 0.000000 0.000000 5.923700 -8.024096 8.868351 7.807428 0.000000 0.000000 -11.308930 11.150354 9.156591 6.941704 0.000000 0.000000 12.651700 12.991405 -21.680179 4.964259 0.000000 0.000000 -17.773810 
